<svg width="380" height="52" viewBox="0 0 380 52" fill="none" xmlns="http://www.w3.org/2000/svg">
<path d="M23.408 4.792C26.224 4.792 28.528 5.21867 30.32 6.072C32.1547 6.88267 33.776 7.84267 35.184 8.952C36.0373 9.592 36.6773 9.67733 37.104 9.208C37.5733 8.696 37.8934 7.52267 38.064 5.688H39.536C39.4507 7.352 39.3867 9.37867 39.344 11.768C39.3013 14.1147 39.28 17.2507 39.28 21.176H37.808C37.5947 19.2133 37.3174 17.5493 36.976 16.184C36.6347 14.776 36.1653 13.5387 35.568 12.472C34.9707 11.4053 34.1174 10.4453 33.008 9.592C31.9414 8.52533 30.704 7.736 29.296 7.224C27.888 6.712 26.416 6.456 24.88 6.456C22.576 6.456 20.6133 7.07467 18.992 8.312C17.3707 9.50667 16.048 11.1493 15.024 13.24C14.0427 15.3307 13.3173 17.6987 12.848 20.344C12.3787 22.9467 12.144 25.656 12.144 28.472C12.144 31.3307 12.3787 34.0827 12.848 36.728C13.36 39.3307 14.128 41.656 15.152 43.704C16.2187 45.752 17.584 47.3733 19.248 48.568C20.912 49.7627 22.8747 50.36 25.136 50.36C26.544 50.36 27.952 50.104 29.36 49.592C30.8107 49.0373 32.048 48.248 33.072 47.224C34.736 45.944 35.8667 44.3653 36.464 42.488C37.0613 40.568 37.5093 38.0293 37.808 34.872H39.28C39.28 38.9253 39.3013 42.2107 39.344 44.728C39.3867 47.2027 39.4507 49.2933 39.536 51H38.064C37.8934 49.1653 37.5947 48.0133 37.168 47.544C36.784 47.0747 36.1227 47.1387 35.184 47.736C33.6054 48.8453 31.92 49.8267 30.128 50.68C28.3787 51.4907 26.1173 51.896 23.344 51.896C18.8213 51.896 14.8533 50.9787 11.44 49.144C8.06935 47.3093 5.44535 44.664 3.56801 41.208C1.69068 37.752 0.752014 33.592 0.752014 28.728C0.752014 23.9493 1.71201 19.768 3.63201 16.184C5.59468 12.6 8.26135 9.80534 11.632 7.8C15.0453 5.79467 18.9707 4.792 23.408 4.792Z" fill="#0A214A"/>
<path d="M57.717 0.888V45.048C57.717 46.84 58.0157 48.056 58.613 48.696C59.253 49.336 60.3197 49.656 61.813 49.656V51C61.0023 50.9573 59.7864 50.9147 58.165 50.872C56.5437 50.7867 54.901 50.744 53.237 50.744C51.573 50.744 49.8877 50.7867 48.181 50.872C46.517 50.9147 45.2583 50.9573 44.405 51V49.656C45.8983 49.656 46.9437 49.336 47.541 48.696C48.181 48.056 48.501 46.84 48.501 45.048V8.568C48.501 6.648 48.2023 5.24 47.605 4.344C47.0503 3.40533 45.9837 2.936 44.405 2.936V1.592C45.7703 1.72 47.093 1.784 48.373 1.784C50.1223 1.784 51.7863 1.72 53.365 1.592C54.9437 1.42134 56.3943 1.18667 57.717 0.888Z" fill="#0A214A"/>
<path d="M73.368 51.448C71.448 51.448 69.848 51.0853 68.568 50.36C67.288 49.6347 66.3493 48.6747 65.752 47.48C65.1547 46.2427 64.856 44.8987 64.856 43.448C64.856 41.6133 65.2613 40.12 66.072 38.968C66.9253 37.816 68.0133 36.8773 69.336 36.152C70.6587 35.4267 72.0453 34.8293 73.496 34.36C74.9893 33.8907 76.3974 33.4427 77.72 33.016C79.0854 32.5467 80.1733 32.0133 80.984 31.416C81.8373 30.776 82.264 29.9653 82.264 28.984V23.992C82.264 22.8827 82.072 21.9013 81.688 21.048C81.3467 20.152 80.792 19.4693 80.024 19C79.2987 18.5307 78.3387 18.296 77.144 18.296C76.2907 18.296 75.4373 18.424 74.584 18.68C73.7307 18.8933 73.0267 19.2773 72.472 19.832C73.6667 20.2587 74.584 20.92 75.224 21.816C75.9067 22.6693 76.248 23.6507 76.248 24.76C76.248 26.2107 75.736 27.3627 74.712 28.216C73.7307 29.0693 72.5574 29.496 71.192 29.496C69.656 29.496 68.4827 29.0267 67.672 28.088C66.904 27.1067 66.52 25.9333 66.52 24.568C66.52 23.3307 66.8187 22.3067 67.416 21.496C68.056 20.6853 68.9307 19.9173 70.04 19.192C71.2347 18.5093 72.664 17.976 74.328 17.592C76.0347 17.208 77.8693 17.016 79.832 17.016C81.7947 17.016 83.5653 17.2293 85.144 17.656C86.7227 18.04 88.0453 18.7653 89.112 19.832C90.0933 20.8133 90.7333 22.0293 91.032 23.48C91.3307 24.888 91.48 26.68 91.48 28.856V46.264C91.48 47.3307 91.5867 48.0773 91.8 48.504C92.0134 48.888 92.376 49.08 92.888 49.08C93.272 49.08 93.6347 48.9733 93.976 48.76C94.36 48.5467 94.7654 48.2907 95.192 47.992L95.832 49.08C94.936 49.848 93.8907 50.4453 92.696 50.872C91.544 51.256 90.2427 51.448 88.792 51.448C87.2133 51.448 85.9547 51.2347 85.016 50.808C84.0773 50.3387 83.3947 49.72 82.968 48.952C82.584 48.184 82.392 47.288 82.392 46.264C81.368 47.8853 80.1307 49.1653 78.68 50.104C77.2293 51 75.4587 51.448 73.368 51.448ZM77.912 47.352C78.7654 47.352 79.5334 47.16 80.216 46.776C80.9414 46.3493 81.624 45.6667 82.264 44.728V31.608C81.88 32.248 81.3467 32.824 80.664 33.336C79.9814 33.848 79.256 34.3813 78.488 34.936C77.72 35.448 76.9734 36.024 76.248 36.664C75.5654 37.304 75.0107 38.0933 74.584 39.032C74.1573 39.9707 73.944 41.1013 73.944 42.424C73.944 44.088 74.3067 45.3253 75.032 46.136C75.7573 46.9467 76.7174 47.352 77.912 47.352Z" fill="#0A214A"/>
<path d="M119.677 17.016C121.042 17.016 122.152 17.3147 123.005 17.912C123.858 18.4667 124.477 19.192 124.861 20.088C125.288 20.984 125.501 21.9227 125.501 22.904C125.501 24.4827 125.032 25.784 124.093 26.808C123.197 27.7893 122.002 28.28 120.509 28.28C119.016 28.28 117.842 27.9173 116.989 27.192C116.178 26.424 115.773 25.4213 115.773 24.184C115.773 22.9893 116.029 22.008 116.541 21.24C117.096 20.4293 117.778 19.7467 118.589 19.192C117.992 19.0213 117.394 19.0427 116.797 19.256C115.986 19.384 115.218 19.7253 114.493 20.28C113.768 20.792 113.149 21.4533 112.637 22.264C112.125 23.032 111.72 23.8853 111.421 24.824C111.122 25.72 110.973 26.5947 110.973 27.448V44.408C110.973 46.456 111.464 47.8427 112.445 48.568C113.469 49.2933 114.984 49.656 116.989 49.656V51C116.008 50.9573 114.578 50.9147 112.701 50.872C110.824 50.7867 108.861 50.744 106.813 50.744C105.106 50.744 103.378 50.7867 101.629 50.872C99.8797 50.9147 98.557 50.9573 97.661 51V49.656C99.1543 49.656 100.2 49.336 100.797 48.696C101.437 48.056 101.757 46.84 101.757 45.048V24.888C101.757 22.968 101.458 21.56 100.861 20.664C100.306 19.7253 99.2397 19.256 97.661 19.256V17.912C99.0263 18.04 100.349 18.104 101.629 18.104C103.421 18.104 105.085 18.04 106.621 17.912C108.2 17.7413 109.65 17.5067 110.973 17.208V23.16C111.485 22.008 112.168 20.9627 113.021 20.024C113.874 19.0853 114.856 18.36 115.965 17.848C117.074 17.2933 118.312 17.016 119.677 17.016Z" fill="#0A214A"/>
<path d="M136.368 51.448C134.448 51.448 132.848 51.0853 131.568 50.36C130.288 49.6347 129.349 48.6747 128.752 47.48C128.155 46.2427 127.856 44.8987 127.856 43.448C127.856 41.6133 128.261 40.12 129.072 38.968C129.925 37.816 131.013 36.8773 132.336 36.152C133.659 35.4267 135.045 34.8293 136.496 34.36C137.989 33.8907 139.397 33.4427 140.72 33.016C142.085 32.5467 143.173 32.0133 143.984 31.416C144.837 30.776 145.264 29.9653 145.264 28.984V23.992C145.264 22.8827 145.072 21.9013 144.688 21.048C144.347 20.152 143.792 19.4693 143.024 19C142.299 18.5307 141.339 18.296 140.144 18.296C139.291 18.296 138.437 18.424 137.584 18.68C136.731 18.8933 136.027 19.2773 135.472 19.832C136.667 20.2587 137.584 20.92 138.224 21.816C138.907 22.6693 139.248 23.6507 139.248 24.76C139.248 26.2107 138.736 27.3627 137.712 28.216C136.731 29.0693 135.557 29.496 134.192 29.496C132.656 29.496 131.483 29.0267 130.672 28.088C129.904 27.1067 129.52 25.9333 129.52 24.568C129.52 23.3307 129.819 22.3067 130.416 21.496C131.056 20.6853 131.931 19.9173 133.04 19.192C134.235 18.5093 135.664 17.976 137.328 17.592C139.035 17.208 140.869 17.016 142.832 17.016C144.795 17.016 146.565 17.2293 148.144 17.656C149.723 18.04 151.045 18.7653 152.112 19.832C153.093 20.8133 153.733 22.0293 154.032 23.48C154.331 24.888 154.48 26.68 154.48 28.856V46.264C154.48 47.3307 154.587 48.0773 154.8 48.504C155.013 48.888 155.376 49.08 155.888 49.08C156.272 49.08 156.635 48.9733 156.976 48.76C157.36 48.5467 157.765 48.2907 158.192 47.992L158.832 49.08C157.936 49.848 156.891 50.4453 155.696 50.872C154.544 51.256 153.243 51.448 151.792 51.448C150.213 51.448 148.955 51.2347 148.016 50.808C147.077 50.3387 146.395 49.72 145.968 48.952C145.584 48.184 145.392 47.288 145.392 46.264C144.368 47.8853 143.131 49.1653 141.68 50.104C140.229 51 138.459 51.448 136.368 51.448ZM140.912 47.352C141.765 47.352 142.533 47.16 143.216 46.776C143.941 46.3493 144.624 45.6667 145.264 44.728V31.608C144.88 32.248 144.347 32.824 143.664 33.336C142.981 33.848 142.256 34.3813 141.488 34.936C140.72 35.448 139.973 36.024 139.248 36.664C138.565 37.304 138.011 38.0933 137.584 39.032C137.157 39.9707 136.944 41.1013 136.944 42.424C136.944 44.088 137.307 45.3253 138.032 46.136C138.757 46.9467 139.717 47.352 140.912 47.352Z" fill="#0A214A"/>
<path d="M203.062 51V49.72C204.427 49.6347 205.451 49.464 206.134 49.208C206.817 48.952 207.265 48.44 207.478 47.672C207.734 46.904 207.862 45.752 207.862 44.216V12.472C207.862 10.8933 207.734 9.74133 207.478 9.016C207.265 8.248 206.795 7.736 206.07 7.48C205.387 7.18134 204.385 7.01067 203.062 6.968V5.688C204.214 5.73067 205.707 5.77334 207.542 5.816C209.419 5.85867 211.275 5.88 213.11 5.88C215.073 5.88 216.907 5.85867 218.614 5.816C220.363 5.77334 221.771 5.73067 222.838 5.688V6.968C221.473 7.01067 220.427 7.18134 219.702 7.48C219.019 7.736 218.571 8.248 218.358 9.016C218.145 9.74133 218.038 10.8933 218.038 12.472V44.216C218.038 45.752 218.145 46.904 218.358 47.672C218.614 48.44 219.083 48.952 219.766 49.208C220.449 49.464 221.473 49.6347 222.838 49.72V51C221.771 50.9147 220.363 50.872 218.614 50.872C216.907 50.8293 215.073 50.808 213.11 50.808C211.275 50.808 209.419 50.8293 207.542 50.872C205.707 50.872 204.214 50.9147 203.062 51ZM175.926 51V49.72C177.291 49.6347 178.315 49.464 178.998 49.208C179.681 48.952 180.129 48.44 180.342 47.672C180.598 46.904 180.726 45.752 180.726 44.216V12.472C180.726 10.8933 180.598 9.74133 180.342 9.016C180.129 8.248 179.659 7.736 178.934 7.48C178.251 7.18134 177.249 7.01067 175.926 6.968V5.688C177.035 5.73067 178.465 5.77334 180.214 5.816C182.006 5.85867 183.947 5.88 186.038 5.88C187.83 5.88 189.601 5.85867 191.35 5.816C193.099 5.77334 194.55 5.73067 195.702 5.688V6.968C194.337 7.01067 193.291 7.18134 192.566 7.48C191.883 7.736 191.435 8.248 191.222 9.016C191.009 9.74133 190.902 10.8933 190.902 12.472V44.216C190.902 45.752 191.009 46.904 191.222 47.672C191.478 48.44 191.947 48.952 192.63 49.208C193.313 49.464 194.337 49.6347 195.702 49.72V51C194.55 50.9147 193.099 50.872 191.35 50.872C189.601 50.8293 187.83 50.808 186.038 50.808C183.947 50.808 182.006 50.8293 180.214 50.872C178.465 50.872 177.035 50.9147 175.926 51ZM186.742 28.856V27.576H212.022V28.856H186.742Z" fill="#0A214A"/>
<path d="M241.798 17.016C245.553 17.016 248.497 18.1253 250.63 20.344C252.763 22.5627 253.83 26.1893 253.83 31.224H232.774L232.646 30.008H245.766C245.809 27.9173 245.681 25.9973 245.382 24.248C245.083 22.456 244.614 21.0267 243.974 19.96C243.334 18.8933 242.481 18.36 241.414 18.36C239.921 18.36 238.641 19.2987 237.574 21.176C236.55 23.0533 235.931 26.168 235.718 30.52L235.91 30.904C235.867 31.416 235.825 31.9493 235.782 32.504C235.782 33.0587 235.782 33.6347 235.782 34.232C235.782 37.176 236.187 39.5653 236.998 41.4C237.851 43.2347 238.918 44.5787 240.198 45.432C241.478 46.2427 242.779 46.648 244.102 46.648C244.998 46.648 245.915 46.52 246.854 46.264C247.835 45.9653 248.817 45.4533 249.798 44.728C250.779 43.96 251.697 42.8933 252.55 41.528L253.702 41.912C253.19 43.5333 252.379 45.112 251.27 46.648C250.161 48.184 248.753 49.4427 247.046 50.424C245.339 51.4053 243.291 51.896 240.902 51.896C238.001 51.896 235.441 51.2773 233.222 50.04C231.003 48.8027 229.254 46.9253 227.974 44.408C226.737 41.8907 226.118 38.6907 226.118 34.808C226.118 30.84 226.779 27.5333 228.102 24.888C229.467 22.2427 231.323 20.28 233.67 19C236.059 17.6773 238.769 17.016 241.798 17.016Z" fill="#0A214A"/>
<path d="M270.592 0.888V45.048C270.592 46.84 270.891 48.056 271.488 48.696C272.128 49.336 273.195 49.656 274.688 49.656V51C273.877 50.9573 272.661 50.9147 271.04 50.872C269.419 50.7867 267.776 50.744 266.112 50.744C264.448 50.744 262.763 50.7867 261.056 50.872C259.392 50.9147 258.133 50.9573 257.28 51V49.656C258.773 49.656 259.819 49.336 260.416 48.696C261.056 48.056 261.376 46.84 261.376 45.048V8.568C261.376 6.648 261.077 5.24 260.48 4.344C259.925 3.40533 258.859 2.936 257.28 2.936V1.592C258.645 1.72 259.968 1.784 261.248 1.784C262.997 1.784 264.661 1.72 266.24 1.592C267.819 1.42134 269.269 1.18667 270.592 0.888Z" fill="#0A214A"/>
<path d="M293.298 17.016C297.053 17.016 299.997 18.1253 302.13 20.344C304.263 22.5627 305.33 26.1893 305.33 31.224H284.274L284.146 30.008H297.266C297.309 27.9173 297.181 25.9973 296.882 24.248C296.583 22.456 296.114 21.0267 295.474 19.96C294.834 18.8933 293.981 18.36 292.914 18.36C291.421 18.36 290.141 19.2987 289.074 21.176C288.05 23.0533 287.431 26.168 287.218 30.52L287.41 30.904C287.367 31.416 287.325 31.9493 287.282 32.504C287.282 33.0587 287.282 33.6347 287.282 34.232C287.282 37.176 287.687 39.5653 288.498 41.4C289.351 43.2347 290.418 44.5787 291.698 45.432C292.978 46.2427 294.279 46.648 295.602 46.648C296.498 46.648 297.415 46.52 298.354 46.264C299.335 45.9653 300.317 45.4533 301.298 44.728C302.279 43.96 303.197 42.8933 304.05 41.528L305.202 41.912C304.69 43.5333 303.879 45.112 302.77 46.648C301.661 48.184 300.253 49.4427 298.546 50.424C296.839 51.4053 294.791 51.896 292.402 51.896C289.501 51.896 286.941 51.2773 284.722 50.04C282.503 48.8027 280.754 46.9253 279.474 44.408C278.237 41.8907 277.618 38.6907 277.618 34.808C277.618 30.84 278.279 27.5333 279.602 24.888C280.967 22.2427 282.823 20.28 285.17 19C287.559 17.6773 290.269 17.016 293.298 17.016Z" fill="#0A214A"/>
<path d="M332.469 17.016C334.261 17.016 335.712 17.2507 336.821 17.72C337.973 18.1467 338.869 18.744 339.509 19.512C340.192 20.3227 340.682 21.368 340.981 22.648C341.322 23.928 341.493 25.656 341.493 27.832V45.048C341.493 46.84 341.792 48.056 342.389 48.696C343.029 49.336 344.096 49.656 345.589 49.656V51C344.778 50.9573 343.562 50.9147 341.941 50.872C340.32 50.7867 338.72 50.744 337.141 50.744C335.52 50.744 333.92 50.7867 332.341 50.872C330.805 50.9147 329.632 50.9573 328.821 51V49.656C330.101 49.656 330.997 49.336 331.509 48.696C332.021 48.056 332.277 46.84 332.277 45.048V25.144C332.277 24.0773 332.17 23.16 331.957 22.392C331.744 21.5813 331.36 20.9627 330.805 20.536C330.25 20.0667 329.418 19.832 328.309 19.832C327.157 19.832 326.09 20.152 325.109 20.792C324.17 21.432 323.402 22.328 322.805 23.48C322.25 24.5893 321.973 25.848 321.973 27.256V45.048C321.973 46.84 322.229 48.056 322.741 48.696C323.296 49.336 324.192 49.656 325.429 49.656V51C324.661 50.9573 323.53 50.9147 322.037 50.872C320.586 50.7867 319.072 50.744 317.493 50.744C315.872 50.744 314.208 50.7867 312.501 50.872C310.794 50.9147 309.514 50.9573 308.661 51V49.656C310.154 49.656 311.2 49.336 311.797 48.696C312.437 48.056 312.757 46.84 312.757 45.048V24.888C312.757 22.968 312.458 21.56 311.861 20.664C311.306 19.7253 310.24 19.256 308.661 19.256V17.912C310.026 18.04 311.349 18.104 312.629 18.104C314.421 18.104 316.085 18.04 317.621 17.912C319.2 17.7413 320.65 17.5067 321.973 17.208V22.968C323.04 20.792 324.49 19.256 326.325 18.36C328.16 17.464 330.208 17.016 332.469 17.016Z" fill="#0A214A"/>
<path d="M356.806 51.448C354.885 51.448 353.286 51.0853 352.006 50.36C350.726 49.6347 349.787 48.6747 349.19 47.48C348.592 46.2427 348.294 44.8987 348.294 43.448C348.294 41.6133 348.699 40.12 349.51 38.968C350.363 37.816 351.451 36.8773 352.774 36.152C354.096 35.4267 355.483 34.8293 356.934 34.36C358.427 33.8907 359.835 33.4427 361.158 33.016C362.523 32.5467 363.611 32.0133 364.422 31.416C365.275 30.776 365.702 29.9653 365.702 28.984V23.992C365.702 22.8827 365.51 21.9013 365.126 21.048C364.784 20.152 364.23 19.4693 363.462 19C362.736 18.5307 361.776 18.296 360.582 18.296C359.728 18.296 358.875 18.424 358.022 18.68C357.168 18.8933 356.464 19.2773 355.91 19.832C357.104 20.2587 358.022 20.92 358.662 21.816C359.344 22.6693 359.686 23.6507 359.686 24.76C359.686 26.2107 359.173 27.3627 358.15 28.216C357.168 29.0693 355.995 29.496 354.63 29.496C353.094 29.496 351.92 29.0267 351.11 28.088C350.342 27.1067 349.958 25.9333 349.958 24.568C349.958 23.3307 350.256 22.3067 350.854 21.496C351.494 20.6853 352.368 19.9173 353.478 19.192C354.672 18.5093 356.102 17.976 357.766 17.592C359.472 17.208 361.307 17.016 363.27 17.016C365.232 17.016 367.003 17.2293 368.582 17.656C370.16 18.04 371.483 18.7653 372.55 19.832C373.531 20.8133 374.171 22.0293 374.47 23.48C374.768 24.888 374.918 26.68 374.918 28.856V46.264C374.918 47.3307 375.024 48.0773 375.238 48.504C375.451 48.888 375.814 49.08 376.326 49.08C376.71 49.08 377.072 48.9733 377.414 48.76C377.798 48.5467 378.203 48.2907 378.63 47.992L379.27 49.08C378.374 49.848 377.328 50.4453 376.134 50.872C374.982 51.256 373.68 51.448 372.23 51.448C370.651 51.448 369.392 51.2347 368.454 50.808C367.515 50.3387 366.832 49.72 366.406 48.952C366.022 48.184 365.83 47.288 365.83 46.264C364.806 47.8853 363.568 49.1653 362.118 50.104C360.667 51 358.896 51.448 356.806 51.448ZM361.35 47.352C362.203 47.352 362.971 47.16 363.654 46.776C364.379 46.3493 365.061 45.6667 365.702 44.728V31.608C365.318 32.248 364.784 32.824 364.102 33.336C363.419 33.848 362.694 34.3813 361.926 34.936C361.158 35.448 360.411 36.024 359.686 36.664C359.003 37.304 358.448 38.0933 358.022 39.032C357.595 39.9707 357.382 41.1013 357.382 42.424C357.382 44.088 357.744 45.3253 358.47 46.136C359.195 46.9467 360.155 47.352 361.35 47.352Z" fill="#0A214A"/>
</svg>
